G04 DipTrace 3.3.1.3*
G04 Bottom.gbr*
%MOMM*%
G04 #@! TF.FileFunction,Copper,L2,Bot*
G04 #@! TF.Part,Single*
G04 #@! TA.AperFunction,Conductor*
%ADD14C,0.6*%
%ADD15C,0.4*%
G04 #@! TA.AperFunction,CopperBalancing*
%ADD18C,0.5*%
G04 #@! TA.AperFunction,ComponentPad*
%ADD19C,5.0*%
%ADD20R,2.5X2.5*%
%ADD26R,1.5X1.5*%
%ADD27C,1.5*%
%ADD28C,3.0*%
G04 #@! TA.AperFunction,ViaPad*
%ADD29C,0.914*%
%FSLAX35Y35*%
G04*
G71*
G90*
G75*
G01*
G04 Bottom*
%LPD*%
X4090000Y850000D2*
D15*
Y546500D1*
X3971373Y427873D1*
Y221500D1*
X3660000Y1890000D2*
X3570000D1*
X3180000Y1500000D1*
Y300000D1*
X3258500Y221500D1*
X3717373D1*
X4210000Y1790000D2*
D14*
X3630000D1*
X3310000Y1470000D1*
D29*
X4090000Y850000D3*
X3660000Y1890000D3*
X4210000Y1790000D3*
X3310000Y1470000D3*
X1606000Y412000D3*
X764627Y5746000D3*
X1606000D3*
X1860000D3*
X2114000D3*
X2368000D3*
X2622000D3*
Y5492000D3*
X2368000D3*
X2114000D3*
X1860000D3*
X1606000D3*
X764627D3*
X510627D3*
Y5746000D3*
X256623D3*
Y5492000D3*
Y5238000D3*
X510627D3*
X764627D3*
X1606000D3*
X1860000D3*
X2114000D3*
X2368000D3*
X2622000D3*
Y4984000D3*
X2368000D3*
X2114000D3*
X1860000D3*
X1606000D3*
X764627D3*
X510627D3*
X256623D3*
Y4476000D3*
X510627D3*
X764627D3*
X1606000D3*
X1860000D3*
X2114000D3*
X2368000D3*
X2622000D3*
Y4730000D3*
X1606000D3*
X764627D3*
X1606000Y666000D3*
Y920000D3*
X1860000D3*
Y666000D3*
X2114000D3*
Y920000D3*
X2368000D3*
Y666000D3*
X2622000D3*
Y920000D3*
X4146000Y5746000D3*
X3892000D3*
X3638000D3*
X3384000D3*
Y5492000D3*
X3638000D3*
X3892000D3*
X4146000D3*
Y5238000D3*
X3892000D3*
X3638000D3*
X3384000D3*
Y4984000D3*
X3638000D3*
X3892000D3*
X4146000D3*
Y4730000D3*
X3638000D3*
X3384000D3*
Y4476000D3*
X3638000D3*
X4146000D3*
X3892000D3*
X4654000Y5746000D3*
X4908000D3*
X5162000D3*
Y5492000D3*
X4908000D3*
X4654000D3*
Y5238000D3*
X4908000D3*
X5162000D3*
Y4984000D3*
X4908000D3*
X4654000D3*
X6178000D3*
X6432000D3*
X6686000D3*
X6940000D3*
Y5238000D3*
X6686000D3*
X6432000D3*
X6178000D3*
Y5492000D3*
X6432000D3*
X6686000D3*
X6940000D3*
Y5746000D3*
X6686000D3*
X6432000D3*
X6178000D3*
X8019500D3*
X8273500D3*
X8527500D3*
Y5492000D3*
X8273500D3*
X8019500D3*
Y5238000D3*
X8273500D3*
X8527500D3*
Y4984000D3*
X8273500D3*
X8019500D3*
Y4730000D3*
X6178000D3*
X8019500Y4476000D3*
X8527500D3*
X6940000D3*
X6178000D3*
X5924000Y412000D3*
Y666000D3*
Y920000D3*
X6432000D3*
X6178000Y666000D3*
Y920000D3*
X6432000Y666000D3*
X6686000D3*
Y920000D3*
X6940000D3*
Y666000D3*
X7194000D3*
Y920000D3*
Y412000D3*
X3160047Y5735333D2*
D18*
X4279797D1*
X3160047Y5685667D2*
X4279617D1*
X3160047Y5636000D2*
X4279433D1*
X3160047Y5586333D2*
X4279343D1*
X3160047Y5536667D2*
X4279160D1*
X3160047Y5487000D2*
X4278977D1*
X3160047Y5437333D2*
X4278887D1*
X3160047Y5387667D2*
X4278703D1*
X3160047Y5338000D2*
X4278613D1*
X3160047Y5288333D2*
X4278430D1*
X3160047Y5238667D2*
X4278250D1*
X3160047Y5189000D2*
X4278157D1*
X3160047Y5139333D2*
X4277977D1*
X3160047Y5089667D2*
X4277793D1*
X3160047Y5040000D2*
X4277703D1*
X3160047Y4990333D2*
X4277520D1*
X3160047Y4940667D2*
X4277337D1*
X3160047Y4891000D2*
X4277247D1*
X3160047Y4841333D2*
X4277063D1*
X3160047Y4791667D2*
X4276880D1*
X3160047Y4742000D2*
X4276790D1*
X3160047Y4692333D2*
X4276607D1*
X3160047Y4642667D2*
X4276427D1*
X3160047Y4593000D2*
X4276333D1*
X3160047Y4543333D2*
X4276153D1*
X3160047Y4493667D2*
X4275970D1*
X3160047Y4444000D2*
X4275880D1*
X3160047Y4394333D2*
X4275697D1*
X3160047Y4344667D2*
X4275513D1*
X3160047Y4295000D2*
X4275423D1*
X3160047Y4245333D2*
X4275240D1*
X3160047Y4195667D2*
X4275060D1*
X3160047Y4146000D2*
X4274967D1*
X3160047Y4096333D2*
X4274787D1*
X3160047Y4046667D2*
X7370370D1*
X3160047Y3997000D2*
X7370370D1*
X3160047Y3947333D2*
X7370370D1*
X3160047Y3897667D2*
X7370370D1*
X3160047Y3848000D2*
X7370370D1*
X3160047Y3798333D2*
X7370370D1*
X3160047Y3748667D2*
X7370370D1*
X3160047Y3699000D2*
X7370370D1*
X3160047Y3649333D2*
X7370370D1*
X3160047Y3599667D2*
X7370370D1*
X3160047Y3550000D2*
X7370370D1*
X3160047Y3500333D2*
X7370370D1*
X3160047Y3450667D2*
X7370370D1*
X3160047Y3401000D2*
X7370370D1*
X3160047Y3351333D2*
X7370370D1*
X3160047Y3301667D2*
X7370370D1*
X3160047Y3252000D2*
X7370370D1*
X3160047Y3202333D2*
X7370370D1*
X3160047Y3152667D2*
X7370370D1*
X3160047Y3103000D2*
X7370370D1*
X3160047Y3053333D2*
X7370370D1*
X3160047Y3003667D2*
X7370370D1*
X3160047Y2954000D2*
X5671777D1*
X5922403D2*
X7370370D1*
X3160047Y2904333D2*
X5615630D1*
X5978547D2*
X7370370D1*
X3160047Y2854667D2*
X5585097D1*
X6009083D2*
X7370370D1*
X3160047Y2805000D2*
X5569330D1*
X6024850D2*
X7370370D1*
X3160047Y2755333D2*
X5565227D1*
X6029043D2*
X7370370D1*
X3160047Y2705667D2*
X5572063D1*
X6022117D2*
X7370370D1*
X3160047Y2656000D2*
X5591113D1*
X6003067D2*
X7370370D1*
X3160047Y2606333D2*
X5626387D1*
X5967793D2*
X7370370D1*
X3160047Y2556667D2*
X5694290D1*
X5899980D2*
X7370370D1*
X3160047Y2507000D2*
X7370370D1*
X3160047Y2457333D2*
X7370370D1*
X3160047Y2407667D2*
X7370370D1*
X3160047Y2358000D2*
X7370370D1*
X3160047Y2308333D2*
X7370370D1*
X3160047Y2258667D2*
X7370370D1*
X3160047Y2209000D2*
X7370370D1*
X3160047Y2159333D2*
X7370370D1*
X3160047Y2109667D2*
X7370370D1*
X4310397Y2060000D2*
X7370370D1*
X4359980Y2010333D2*
X7370370D1*
X4409653Y1960667D2*
X7370370D1*
X4459330Y1911000D2*
X7370370D1*
X4509003Y1861333D2*
X7370370D1*
X4530150Y1811667D2*
X7370370D1*
X4530513Y1762000D2*
X7370370D1*
X4530880Y1712333D2*
X5739590D1*
X5854680D2*
X7370370D1*
X4531153Y1662667D2*
X5642977D1*
X5951203D2*
X7370370D1*
X4531517Y1613000D2*
X5600320D1*
X5993860D2*
X7370370D1*
X4531880Y1563333D2*
X5576803D1*
X6017467D2*
X7370370D1*
X4532247Y1513667D2*
X5566140D1*
X6028040D2*
X7370370D1*
X4532610Y1464000D2*
X5566777D1*
X6027403D2*
X7370370D1*
X4532977Y1414333D2*
X5578627D1*
X6015553D2*
X7370370D1*
X4533340Y1364667D2*
X5603873D1*
X5990397D2*
X7370370D1*
X4533703Y1315000D2*
X5649357D1*
X5944823D2*
X7370370D1*
X4534070Y1265333D2*
X5772677D1*
X5821503D2*
X7370370D1*
X4534433Y1215667D2*
X7370370D1*
X4534707Y1166000D2*
X7370370D1*
X4535070Y1116333D2*
X7370370D1*
X4535437Y1066667D2*
X7370370D1*
X4535800Y1017000D2*
X7370370D1*
X4536167Y967333D2*
X7370370D1*
X4536530Y917667D2*
X7370370D1*
X4536893Y868000D2*
X7370370D1*
X4537260Y818333D2*
X7370370D1*
X4537623Y768667D2*
X7370370D1*
X4537897Y719000D2*
X7370370D1*
X4538263Y669333D2*
X7370370D1*
X4538627Y619667D2*
X7370370D1*
X4538990Y570000D2*
X7370370D1*
X4539357Y520333D2*
X7370370D1*
X4539720Y470667D2*
X7370370D1*
X5280007Y421000D2*
X7370370D1*
X5280007Y371333D2*
X7370370D1*
X5280007Y321667D2*
X7370370D1*
X5280007Y272000D2*
X7370370D1*
X5280007Y222333D2*
X7370370D1*
X5280007Y172667D2*
X7370370D1*
X6023400Y1473690D2*
X6021307Y1455990D1*
X6017827Y1438507D1*
X6012990Y1421353D1*
X6006820Y1404630D1*
X5999360Y1388443D1*
X5990650Y1372893D1*
X5980747Y1358073D1*
X5969713Y1344077D1*
X5957613Y1330987D1*
X5944523Y1318887D1*
X5930527Y1307853D1*
X5915707Y1297950D1*
X5900157Y1289240D1*
X5883970Y1281780D1*
X5867247Y1275610D1*
X5850093Y1270773D1*
X5832610Y1267293D1*
X5814910Y1265200D1*
X5797100Y1264500D1*
X5779290Y1265200D1*
X5761590Y1267293D1*
X5744107Y1270773D1*
X5726953Y1275610D1*
X5710230Y1281780D1*
X5694043Y1289240D1*
X5678493Y1297950D1*
X5663673Y1307853D1*
X5649677Y1318887D1*
X5636587Y1330987D1*
X5624487Y1344077D1*
X5613453Y1358073D1*
X5603550Y1372893D1*
X5594840Y1388443D1*
X5587380Y1404630D1*
X5581210Y1421353D1*
X5576373Y1438507D1*
X5572893Y1455990D1*
X5570800Y1473690D1*
X5570100Y1491500D1*
X5570800Y1509310D1*
X5572893Y1527010D1*
X5576373Y1544493D1*
X5581210Y1561647D1*
X5587380Y1578370D1*
X5594840Y1594557D1*
X5603550Y1610107D1*
X5613453Y1624927D1*
X5624487Y1638923D1*
X5636587Y1652013D1*
X5649677Y1664113D1*
X5663673Y1675147D1*
X5678493Y1685050D1*
X5694043Y1693760D1*
X5710230Y1701220D1*
X5726953Y1707390D1*
X5744107Y1712227D1*
X5761590Y1715707D1*
X5779290Y1717800D1*
X5797100Y1718500D1*
X5814910Y1717800D1*
X5832610Y1715707D1*
X5850093Y1712227D1*
X5867247Y1707390D1*
X5883970Y1701220D1*
X5900157Y1693760D1*
X5915707Y1685050D1*
X5930527Y1675147D1*
X5944523Y1664113D1*
X5957613Y1652013D1*
X5969713Y1638923D1*
X5980747Y1624927D1*
X5990650Y1610107D1*
X5999360Y1594557D1*
X6006820Y1578370D1*
X6012990Y1561647D1*
X6017827Y1544493D1*
X6021307Y1527010D1*
X6023400Y1509310D1*
X6024100Y1491500D1*
X6023400Y1473690D1*
Y2743690D2*
X6021307Y2725990D1*
X6017827Y2708507D1*
X6012990Y2691353D1*
X6006820Y2674630D1*
X5999360Y2658443D1*
X5990650Y2642893D1*
X5980747Y2628073D1*
X5969713Y2614077D1*
X5957613Y2600987D1*
X5944523Y2588887D1*
X5930527Y2577853D1*
X5915707Y2567950D1*
X5900157Y2559240D1*
X5883970Y2551780D1*
X5867247Y2545610D1*
X5850093Y2540773D1*
X5832610Y2537293D1*
X5814910Y2535200D1*
X5797100Y2534500D1*
X5779290Y2535200D1*
X5761590Y2537293D1*
X5744107Y2540773D1*
X5726953Y2545610D1*
X5710230Y2551780D1*
X5694043Y2559240D1*
X5678493Y2567950D1*
X5663673Y2577853D1*
X5649677Y2588887D1*
X5636587Y2600987D1*
X5624487Y2614077D1*
X5613453Y2628073D1*
X5603550Y2642893D1*
X5594840Y2658443D1*
X5587380Y2674630D1*
X5581210Y2691353D1*
X5576373Y2708507D1*
X5572893Y2725990D1*
X5570800Y2743690D1*
X5570100Y2761500D1*
X5570800Y2779310D1*
X5572893Y2797010D1*
X5576373Y2814493D1*
X5581210Y2831647D1*
X5587380Y2848370D1*
X5594840Y2864557D1*
X5603550Y2880107D1*
X5613453Y2894927D1*
X5624487Y2908923D1*
X5636587Y2922013D1*
X5649677Y2934113D1*
X5663673Y2945147D1*
X5678493Y2955050D1*
X5694043Y2963760D1*
X5710230Y2971220D1*
X5726953Y2977390D1*
X5744107Y2982227D1*
X5761590Y2985707D1*
X5779290Y2987800D1*
X5797100Y2988500D1*
X5814910Y2987800D1*
X5832610Y2985707D1*
X5850093Y2982227D1*
X5867247Y2977390D1*
X5883970Y2971220D1*
X5900157Y2963760D1*
X5915707Y2955050D1*
X5930527Y2945147D1*
X5944523Y2934113D1*
X5957613Y2922013D1*
X5969713Y2908923D1*
X5980747Y2894927D1*
X5990650Y2880107D1*
X5999360Y2864557D1*
X6006820Y2848370D1*
X6012990Y2831647D1*
X6017827Y2814493D1*
X6021307Y2797010D1*
X6023400Y2779310D1*
X6024100Y2761500D1*
X6023400Y2743690D1*
X3155000Y5775300D2*
Y2095013D1*
X4263910Y2094693D1*
X4271350Y2092277D1*
X4277677Y2087677D1*
X4520120Y1844840D1*
X4523720Y1837897D1*
X4525000Y1830180D1*
X4534823Y454913D1*
X5253910Y454693D1*
X5261350Y452277D1*
X5267677Y447677D1*
X5272277Y441350D1*
X5274693Y433910D1*
X5275000Y360000D1*
Y134960D1*
X7375427Y135370D1*
X7375373Y4054163D1*
X4300763Y4054443D1*
X4293333Y4056883D1*
X4287020Y4061500D1*
X4282440Y4067843D1*
X4280047Y4075290D1*
X4279963Y4149200D1*
X4284923Y5784803D1*
X3154980Y5775210D1*
D19*
X8300000Y4730000D3*
X500000D3*
D20*
X6800000Y400000D3*
X6300000D3*
X2500000D3*
X2000000D3*
D19*
X6550000Y4730000D3*
X2250000D3*
X3925000D3*
X4875000D3*
D26*
X3717373Y221500D3*
D27*
X3971373D3*
X4225373D3*
X4479373D3*
X4733373D3*
X4987373D3*
D28*
X6305000Y1491500D3*
X5797100D3*
X6305100Y2761500D3*
X5797100D3*
G36*
X97873Y5857127D2*
X1971123D1*
Y4285500D1*
X97873D1*
Y5857127D1*
G37*
G36*
X4463500Y4285500D2*
X8670377D1*
Y5873000D1*
X4463500D1*
Y4285500D1*
G37*
G36*
X2812500Y94500D2*
Y5873000D1*
X1367873D1*
Y94500D1*
X2812500D1*
G37*
M02*
