M48
METRIC,0000.00
T01C0.406
T02C0.9
T03C1.2
T04C1.3
T05C2.2
%
T01
X+001606Y+000412
X+001606Y+000666
X+001606Y+000920
X+001860Y+000920
X+002114Y+000920
X+002368Y+000920
X+002368Y+000666
X+002114Y+000666
X+001860Y+000666
X+002622Y+000666
X+002622Y+000920
X+003310Y+001470
X+003660Y+001890
X+004210Y+001790
X+004090Y+000850
X+005924Y+000920
X+006178Y+000920
X+006432Y+000920
X+006686Y+000920
X+006940Y+000920
X+006940Y+000666
X+006686Y+000666
X+006432Y+000666
X+006178Y+000666
X+005924Y+000666
X+005924Y+000412
X+007194Y+000412
X+007194Y+000666
X+007194Y+000920
X+006940Y+004476
X+006940Y+004984
X+006686Y+004984
X+006432Y+004984
X+006432Y+005238
X+006686Y+005238
X+006940Y+005238
X+006940Y+005492
X+006686Y+005492
X+006432Y+005492
X+006178Y+005492
X+006178Y+005238
X+006178Y+004984
X+006178Y+004730
X+006178Y+004476
X+005162Y+004984
X+005162Y+005238
X+005162Y+005492
X+004908Y+005492
X+004908Y+005238
X+004908Y+004984
X+004654Y+004984
X+004654Y+005238
X+004654Y+005492
X+004654Y+005746
X+004908Y+005746
X+005162Y+005746
X+004146Y+005746
X+004146Y+005492
X+004146Y+005238
X+004146Y+004984
X+003892Y+004984
X+003892Y+005238
X+003638Y+005238
X+003384Y+005238
X+003384Y+005492
X+003638Y+005492
X+003892Y+005492
X+003892Y+005746
X+003638Y+005746
X+003384Y+005746
X+003384Y+004984
X+003638Y+004984
X+003638Y+004730
X+003638Y+004476
X+003384Y+004476
X+003384Y+004730
X+003892Y+004476
X+004146Y+004476
X+004146Y+004730
X+002622Y+004730
X+002622Y+004476
X+002368Y+004476
X+002114Y+004476
X+001860Y+004476
X+001606Y+004476
X+001606Y+004730
X+001606Y+004984
X+001606Y+005238
X+001606Y+005492
X+001860Y+005492
X+002114Y+005492
X+002368Y+005492
X+002368Y+005238
X+002114Y+005238
X+001860Y+005238
X+001860Y+004984
X+002114Y+004984
X+002368Y+004984
X+002622Y+004984
X+002622Y+005238
X+002622Y+005492
X+002622Y+005746
X+002368Y+005746
X+002114Y+005746
X+001860Y+005746
X+001606Y+005746
X+000765Y+005746
X+000511Y+005746
X+000511Y+005492
X+000511Y+005238
X+000511Y+004984
X+000765Y+004984
X+000765Y+005238
X+000765Y+005492
X+000257Y+005492
X+000257Y+005238
X+000257Y+004984
X+000257Y+004476
X+000511Y+004476
X+000765Y+004476
X+000765Y+004730
X+000257Y+005746
X+006178Y+005746
X+006432Y+005746
X+006686Y+005746
X+006940Y+005746
X+008020Y+005746
X+008274Y+005746
X+008527Y+005746
X+008527Y+005492
X+008274Y+005492
X+008274Y+005238
X+008274Y+004984
X+008020Y+004984
X+008020Y+005238
X+008020Y+005492
X+008527Y+005238
X+008527Y+004984
X+008527Y+004476
X+008020Y+004476
X+008020Y+004730
T02
X+003717Y+000222
X+003971Y+000222
X+004225Y+000222
X+004479Y+000222
X+004733Y+000222
X+004987Y+000222
T03
X+006305Y+001491
X+005797Y+001491
X+005797Y+002762
X+006305Y+002762
T04
X+006800Y+000400
X+006300Y+000400
X+002500Y+000400
X+002000Y+000400
T05
X+008300Y+004730
X+006550Y+004730
X+004875Y+004730
X+003925Y+004730
X+002250Y+004730
X+000500Y+004730
T00
M30
