G04 DipTrace 3.3.1.3*
G04 TopMask.gbr*
%MOMM*%
G04 #@! TF.FileFunction,Soldermask,Top*
G04 #@! TF.Part,Single*
%ADD37C,3.1*%
%ADD38C,1.6*%
%ADD39R,1.6X1.6*%
%ADD40R,0.7X2.1*%
%ADD41R,1.2X1.1*%
%ADD42R,1.1X1.2*%
%ADD43R,1.6X1.4*%
%ADD44R,1.4X1.6*%
%ADD45R,2.6X2.6*%
%ADD46C,5.1*%
%FSLAX35Y35*%
G04*
G71*
G90*
G75*
G01*
G04 TopMask*
%LPD*%
G36*
X7900000Y5980000D2*
X8700000D1*
Y4280000D1*
X7900000D1*
Y5980000D1*
G37*
D46*
X8300000Y4730000D3*
G36*
X100000Y5980000D2*
X900000D1*
Y4280000D1*
X100000D1*
Y5980000D1*
G37*
D46*
X500000Y4730000D3*
G36*
X7000000Y49940D2*
X6100000D1*
Y600000D1*
X7000000D1*
Y49940D1*
G37*
D45*
X6800000Y400000D3*
X6300000D3*
G36*
X2700000Y49940D2*
X1800000D1*
Y600000D1*
X2700000D1*
Y49940D1*
G37*
D45*
X2500000Y400000D3*
X2000000D3*
G36*
X6150000Y5980000D2*
X6950000D1*
Y4280000D1*
X6150000D1*
Y5980000D1*
G37*
D46*
X6550000Y4730000D3*
G36*
X1850000Y5980000D2*
X2650000D1*
Y4280000D1*
X1850000D1*
Y5980000D1*
G37*
D46*
X2250000Y4730000D3*
D44*
X3336373Y2459873D3*
X3146373D3*
D43*
X4209500Y493623D3*
Y683623D3*
X4479373Y493623D3*
Y683623D3*
X4717500Y493623D3*
Y683623D3*
X4971500Y493623D3*
Y683623D3*
X5225500Y493623D3*
Y683623D3*
X5479500Y493623D3*
Y683623D3*
X3955500Y493623D3*
Y683623D3*
X3701500Y493623D3*
Y683623D3*
X3447500Y493623D3*
Y683623D3*
X3193500Y493623D3*
Y683623D3*
G36*
X3559940Y5980022D2*
X4319940D1*
Y4280000D1*
X3559940D1*
Y5980022D1*
G37*
G36*
X4479920D2*
X5280010D1*
Y4280000D1*
X4479920D1*
Y5980022D1*
G37*
D46*
X3925000Y4730000D3*
X4875000D3*
D42*
X4209500Y1085877D3*
Y915877D3*
X4479373Y1085877D3*
Y915877D3*
X4717500Y1085877D3*
Y915877D3*
X4971500Y1085877D3*
Y915877D3*
X5225500Y1085877D3*
Y915877D3*
X5479500Y1085877D3*
Y915877D3*
X3955500Y1085877D3*
Y915877D3*
X3701500Y1090500D3*
Y920500D3*
X3447500Y1085877D3*
Y915877D3*
X3193500Y1085877D3*
Y915877D3*
D41*
X5082627Y2650373D3*
X5252627D3*
X4717500D3*
X4887500D3*
D40*
X5177873Y2415627D3*
X5050873D3*
X4923873D3*
X4796873D3*
X4669873D3*
X4542873D3*
X4415873D3*
X4288873D3*
X4161873D3*
X4034873D3*
X3907873D3*
X3780873D3*
X3653873D3*
X3526873D3*
Y1475627D3*
X3653873D3*
X3780873D3*
X3907873D3*
X4034873D3*
X4161873D3*
X4288873D3*
X4415873D3*
X4542873D3*
X4669873D3*
X4796873D3*
X4923873D3*
X5050873D3*
X5177873D3*
X3304623Y2205877D3*
X3177623D3*
X3050623D3*
X2923623D3*
Y1665877D3*
X3050623D3*
X3177623D3*
X3304623D3*
D39*
X3717373Y221500D3*
D38*
X3971373D3*
X4225373D3*
X4479373D3*
X4733373D3*
X4987373D3*
D37*
X6305000Y1491500D3*
X5797100D3*
X6305100Y2761500D3*
X5797100D3*
M02*
