G04 DipTrace 3.3.1.3*
G04 TopPaste.gbr*
%MOMM*%
G04 #@! TF.FileFunction,Paste,Top*
G04 #@! TF.Part,Single*
%ADD21R,1.3X1.5*%
%ADD22R,1.5X1.3*%
%ADD23R,1.0X1.1*%
%ADD24R,1.1X1.0*%
%ADD25R,0.6X2.0*%
%FSLAX35Y35*%
G04*
G71*
G90*
G75*
G01*
G04 TopPaste*
%LPD*%
D21*
X3336373Y2459873D3*
X3146373D3*
D22*
X4209500Y493623D3*
Y683623D3*
X4479373Y493623D3*
Y683623D3*
X4717500Y493623D3*
Y683623D3*
X4971500Y493623D3*
Y683623D3*
X5225500Y493623D3*
Y683623D3*
X5479500Y493623D3*
Y683623D3*
X3955500Y493623D3*
Y683623D3*
X3701500Y493623D3*
Y683623D3*
X3447500Y493623D3*
Y683623D3*
X3193500Y493623D3*
Y683623D3*
D23*
X4209500Y1085877D3*
Y915877D3*
X4479373Y1085877D3*
Y915877D3*
X4717500Y1085877D3*
Y915877D3*
X4971500Y1085877D3*
Y915877D3*
X5225500Y1085877D3*
Y915877D3*
X5479500Y1085877D3*
Y915877D3*
X3955500Y1085877D3*
Y915877D3*
X3701500Y1090500D3*
Y920500D3*
X3447500Y1085877D3*
Y915877D3*
X3193500Y1085877D3*
Y915877D3*
D24*
X5082627Y2650373D3*
X5252627D3*
X4717500D3*
X4887500D3*
D25*
X5177873Y2415627D3*
X5050873D3*
X4923873D3*
X4796873D3*
X4669873D3*
X4542873D3*
X4415873D3*
X4288873D3*
X4161873D3*
X4034873D3*
X3907873D3*
X3780873D3*
X3653873D3*
X3526873D3*
Y1475627D3*
X3653873D3*
X3780873D3*
X3907873D3*
X4034873D3*
X4161873D3*
X4288873D3*
X4415873D3*
X4542873D3*
X4669873D3*
X4796873D3*
X4923873D3*
X5050873D3*
X5177873D3*
X3304623Y2205877D3*
X3177623D3*
X3050623D3*
X2923623D3*
Y1665877D3*
X3050623D3*
X3177623D3*
X3304623D3*
M02*
